<?xml version="1.0" standalone="no"?>
<!DOCTYPE svg PUBLIC "-//W3C//DTD SVG 20010904//EN"
 "http://www.w3.org/TR/2001/REC-SVG-20010904/DTD/svg10.dtd">
<svg version="1.0" xmlns="http://www.w3.org/2000/svg"
 width="700.000000pt" height="700.000000pt" viewBox="0 0 700.000000 700.000000"
 preserveAspectRatio="xMidYMid meet">
<metadata>
Created by potrace 1.14, written by Peter Selinger 2001-2017
</metadata>
<g transform="translate(0.000000,700.000000) scale(0.100000,-0.100000)"
fill="#000000" stroke="none">
<path d="M1477 6484 c-1 -1 -30 -5 -64 -8 -90 -9 -225 -51 -322 -98 -313 -155
-523 -454 -567 -813 -9 -69 -9 -4035 0 -4115 20 -184 92 -366 202 -510 154
-204 363 -334 624 -390 81 -18 185 -18 2140 -19 1974 0 2059 1 2145 19 116 24
171 43 270 91 200 98 378 282 474 491 34 74 78 226 86 303 7 65 8 4112 0 4145
-3 14 -9 50 -14 80 -19 116 -96 293 -174 399 -56 77 -180 198 -254 248 -119
80 -288 147 -428 169 -39 6 -4111 14 -4118 8z"/>
</g>
</svg>
